<?xml version="1.0" standalone="no" ?>
<!DOCTYPE svg PUBLIC "-//W3C//DTD SVG 1.1//EN" "http://www.w3.org/Graphics/SVG/1.1/DTD/svg11.dtd">
<svg width="258px" height="106px" viewBox="0 0 258 106" style="background-color: #ffffff00" xmlns="http://www.w3.org/2000/svg" xmlns:xlink="http://www.w3.org/1999/xlink" version="1.1" >
<text x="0" y="0" stroke="none" fill="#000000" transform="matrix(0.05 0 0 0.05 123.669 83.3037)" font-style="normal" font-weight="normal" font-size="240px" font-family="Helvetica" >
Cr</text>
<text x="0" y="0" stroke="none" fill="#000000" transform="matrix(0.05 0 0 0.05 81.455 102.662)" font-style="normal" font-weight="normal" font-size="260px" font-family="Helvetica" >
O</text>
<path stroke="none" fill="#000000" transform="matrix(0.05 0 0 0.05 -142 -200)" d="M 4697.23,5941.44 L 4667.6,5872.83 L 5289.8,5631.61 L 5299.45,5653.95 L 4697.23,5941.44 Z " />
<text x="0" y="0" stroke="none" fill="#000000" transform="matrix(0.05 0 0 0.05 86.6743 65.9104)" font-style="normal" font-weight="normal" font-size="220px" font-family="Helvetica" >
O</text>
<path stroke="none" fill="#000000" transform="matrix(0.05 0 0 0.05 -142 -200)" d="M 4749.76,5309.31 L 4769.49,5263.56 L 4791.84,5273.2 L 4772.1,5318.95 L 4749.76,5309.31 L 4749.76,5309.31 Z " />
<path stroke="none" fill="#000000" transform="matrix(0.05 0 0 0.05 -142 -200)" d="M 4823.24,5341.02 L 4842.98,5295.27 L 4865.32,5304.91 L 4845.59,5350.66 L 4823.24,5341.02 L 4823.24,5341.02 Z " />
<path stroke="none" fill="#000000" transform="matrix(0.05 0 0 0.05 -142 -200)" d="M 4896.73,5372.72 L 4916.47,5326.98 L 4938.81,5336.62 L 4919.07,5382.36 L 4896.73,5372.72 L 4896.73,5372.72 Z " />
<path stroke="none" fill="#000000" transform="matrix(0.05 0 0 0.05 -142 -200)" d="M 4970.21,5404.43 L 4989.95,5358.68 L 5012.3,5368.32 L 4992.56,5414.07 L 4970.21,5404.43 L 4970.21,5404.43 Z " />
<path stroke="none" fill="#000000" transform="matrix(0.05 0 0 0.05 -142 -200)" d="M 5043.7,5436.14 L 5063.44,5390.39 L 5085.78,5400.03 L 5066.04,5445.78 L 5043.7,5436.14 L 5043.7,5436.14 Z " />
<path stroke="none" fill="#000000" transform="matrix(0.05 0 0 0.05 -142 -200)" d="M 5117.18,5467.84 L 5136.92,5422.1 L 5159.27,5431.74 L 5139.53,5477.49 L 5117.18,5467.84 L 5117.18,5467.84 Z " />
<path stroke="none" fill="#000000" transform="matrix(0.05 0 0 0.05 -142 -200)" d="M 5190.67,5499.55 L 5210.41,5453.8 L 5232.75,5463.45 L 5213.01,5509.19 L 5190.67,5499.55 L 5190.67,5499.55 Z " />
<path stroke="none" fill="#000000" transform="matrix(0.05 0 0 0.05 -142 -200)" d="M 5264.15,5531.26 L 5283.89,5485.51 L 5306.24,5495.15 L 5286.5,5540.9 L 5264.15,5531.26 L 5264.15,5531.26 Z " />
<text x="0" y="0" stroke="none" fill="#000000" transform="matrix(0.05 0 0 0.05 166.349 67.674)" font-style="normal" font-weight="normal" font-size="220px" font-family="Helvetica" >
O</text>
<path stroke="none" fill="#000000" transform="matrix(0.05 0 0 0.05 -142 -200)" d="M 6121.63,5294.38 L 6139.32,5340.96 L 6116.58,5349.6 L 6098.88,5303.03 L 6121.63,5294.38 L 6121.63,5294.38 Z " />
<path stroke="none" fill="#000000" transform="matrix(0.05 0 0 0.05 -142 -200)" d="M 6048.92,5322.01 L 6066.62,5368.58 L 6043.87,5377.23 L 6026.17,5330.65 L 6048.92,5322.01 L 6048.92,5322.01 Z " />
<path stroke="none" fill="#000000" transform="matrix(0.05 0 0 0.05 -142 -200)" d="M 5976.21,5349.63 L 5993.91,5396.21 L 5971.16,5404.85 L 5953.46,5358.27 L 5976.21,5349.63 L 5976.21,5349.63 Z " />
<path stroke="none" fill="#000000" transform="matrix(0.05 0 0 0.05 -142 -200)" d="M 5903.51,5377.25 L 5921.2,5423.83 L 5898.45,5432.47 L 5880.76,5385.9 L 5903.51,5377.25 L 5903.51,5377.25 Z " />
<path stroke="none" fill="#000000" transform="matrix(0.05 0 0 0.05 -142 -200)" d="M 5830.8,5404.88 L 5848.49,5451.45 L 5825.74,5460.1 L 5808.05,5413.52 L 5830.8,5404.88 L 5830.8,5404.88 Z " />
<path stroke="none" fill="#000000" transform="matrix(0.05 0 0 0.05 -142 -200)" d="M 5758.09,5432.5 L 5775.79,5479.08 L 5753.04,5487.72 L 5735.34,5441.14 L 5758.09,5432.5 L 5758.09,5432.5 Z " />
<path stroke="none" fill="#000000" transform="matrix(0.05 0 0 0.05 -142 -200)" d="M 5685.38,5460.12 L 5703.08,5506.7 L 5680.33,5515.34 L 5662.63,5468.77 L 5685.38,5460.12 L 5685.38,5460.12 Z " />
<path stroke="none" fill="#000000" transform="matrix(0.05 0 0 0.05 -142 -200)" d="M 5612.68,5487.75 L 5630.37,5534.32 L 5607.62,5542.97 L 5589.93,5496.39 L 5612.68,5487.75 L 5612.68,5487.75 Z " />
<text x="0" y="0" stroke="none" fill="#000000" transform="matrix(0.05 0 0 0.05 166.756 103.55)" font-style="normal" font-weight="normal" font-size="260px" font-family="Helvetica" >
O</text>
<path stroke="none" fill="#000000" transform="matrix(0.05 0 0 0.05 -142 -200)" d="M 6160.96,5885.69 L 6128.53,5953.03 L 5573.12,5657.61 L 5583.68,5635.68 L 6160.96,5885.69 Z " />
<text x="0" y="0" stroke="none" fill="#000000" transform="matrix(0.05 0 0 0.05 124.669 29.3037)" font-style="normal" font-weight="normal" font-size="240px" font-family="Helvetica" >
Cr</text>
<text x="0" y="0" stroke="none" fill="#000000" transform="matrix(0.05 0 0 0.05 82.455 47.6623)" font-style="normal" font-weight="normal" font-size="260px" font-family="Helvetica" >
O</text>
<path stroke="none" fill="#000000" transform="matrix(0.05 0 0 0.05 -142 -200)" d="M 4717.34,4844.19 L 4689.04,4775.02 L 5308.92,4548.66 L 5318.14,4571.18 L 4717.34,4844.19 L 4717.34,4844.19 Z " />
<text x="0" y="0" stroke="none" fill="#000000" transform="matrix(0.05 0 0 0.05 87.6743 10.9104)" font-style="normal" font-weight="normal" font-size="220px" font-family="Helvetica" >
O</text>
<path stroke="none" fill="#000000" transform="matrix(0.05 0 0 0.05 -142 -200)" d="M 4768.5,4211.51 L 4789.2,4166.19 L 4811.34,4176.3 L 4790.64,4221.62 L 4768.5,4211.51 Z " />
<path stroke="none" fill="#000000" transform="matrix(0.05 0 0 0.05 -142 -200)" d="M 4842.33,4245.23 L 4863.03,4199.92 L 4885.17,4210.03 L 4864.47,4255.35 L 4842.33,4245.23 Z " />
<path stroke="none" fill="#000000" transform="matrix(0.05 0 0 0.05 -142 -200)" d="M 4916.16,4278.96 L 4936.86,4233.64 L 4959,4243.75 L 4938.3,4289.07 L 4916.16,4278.96 Z " />
<path stroke="none" fill="#000000" transform="matrix(0.05 0 0 0.05 -142 -200)" d="M 4989.99,4312.68 L 5010.69,4267.37 L 5032.83,4277.48 L 5012.12,4322.8 L 4989.99,4312.68 Z " />
<path stroke="none" fill="#000000" transform="matrix(0.05 0 0 0.05 -142 -200)" d="M 5063.82,4346.41 L 5084.52,4301.09 L 5106.66,4311.2 L 5085.95,4356.52 L 5063.82,4346.41 Z " />
<path stroke="none" fill="#000000" transform="matrix(0.05 0 0 0.05 -142 -200)" d="M 5137.65,4380.14 L 5158.35,4334.82 L 5180.48,4344.93 L 5159.78,4390.25 L 5137.65,4380.14 Z " />
<path stroke="none" fill="#000000" transform="matrix(0.05 0 0 0.05 -142 -200)" d="M 5211.48,4413.86 L 5232.18,4368.54 L 5254.31,4378.65 L 5233.61,4423.97 L 5211.48,4413.86 Z " />
<path stroke="none" fill="#000000" transform="matrix(0.05 0 0 0.05 -142 -200)" d="M 5285.3,4447.59 L 5306.01,4402.27 L 5328.14,4412.38 L 5307.44,4457.7 L 5285.3,4447.59 Z " />
<text x="0" y="0" stroke="none" fill="#000000" transform="matrix(0.05 0 0 0.05 167.349 12.674)" font-style="normal" font-weight="normal" font-size="220px" font-family="Helvetica" >
O</text>
<path stroke="none" fill="#000000" transform="matrix(0.05 0 0 0.05 -142 -200)" d="M 6141.91,4197.09 L 6160.6,4243.27 L 6138.05,4252.4 L 6119.35,4206.22 L 6141.91,4197.09 Z " />
<path stroke="none" fill="#000000" transform="matrix(0.05 0 0 0.05 -142 -200)" d="M 6068.85,4226.66 L 6087.54,4272.84 L 6064.98,4281.98 L 6046.29,4235.79 L 6068.85,4226.66 Z " />
<path stroke="none" fill="#000000" transform="matrix(0.05 0 0 0.05 -142 -200)" d="M 5995.79,4256.24 L 6014.48,4302.42 L 5991.92,4311.55 L 5973.23,4265.37 L 5995.79,4256.24 Z " />
<path stroke="none" fill="#000000" transform="matrix(0.05 0 0 0.05 -142 -200)" d="M 5922.72,4285.81 L 5941.42,4332 L 5918.86,4341.13 L 5900.17,4294.94 L 5922.72,4285.81 Z " />
<path stroke="none" fill="#000000" transform="matrix(0.05 0 0 0.05 -142 -200)" d="M 5849.66,4315.39 L 5868.36,4361.57 L 5845.8,4370.7 L 5827.1,4324.52 L 5849.66,4315.39 Z " />
<path stroke="none" fill="#000000" transform="matrix(0.05 0 0 0.05 -142 -200)" d="M 5776.6,4344.96 L 5795.29,4391.15 L 5772.74,4400.28 L 5754.04,4354.1 L 5776.6,4344.96 Z " />
<path stroke="none" fill="#000000" transform="matrix(0.05 0 0 0.05 -142 -200)" d="M 5703.54,4374.54 L 5722.23,4420.72 L 5699.67,4429.85 L 5680.98,4383.67 L 5703.54,4374.54 Z " />
<path stroke="none" fill="#000000" transform="matrix(0.05 0 0 0.05 -142 -200)" d="M 5630.48,4404.11 L 5649.17,4450.3 L 5626.61,4459.43 L 5607.92,4413.25 L 5630.48,4404.11 Z " />
<text x="0" y="0" stroke="none" fill="#000000" transform="matrix(0.05 0 0 0.05 167.756 49.5504)" font-style="normal" font-weight="normal" font-size="260px" font-family="Helvetica" >
O</text>
<path stroke="none" fill="#000000" transform="matrix(0.05 0 0 0.05 -142 -200)" d="M 6180.96,4805.69 L 6148.53,4873.03 L 5593.12,4577.61 L 5603.68,4555.68 L 6180.96,4805.69 L 6180.96,4805.69 Z " />
<path stroke="none" fill="#000000" transform="matrix(0.05 0 0 0.05 -142 -200)" d="M 5392.17,5437.9 L 5367.83,5437.9 L 5367.83,4680 L 5392.17,4680 L 5392.17,5437.9 Z " />
<path stroke="none" fill="#000000" transform="matrix(0.05 0 0 0.05 -142 -200)" d="M 5323.96,5437.9 L 5299.62,5437.9 L 5299.62,4680 L 5323.96,4680 L 5323.96,5437.9 Z " />
<path stroke="none" fill="#000000" transform="matrix(0.05 0 0 0.05 -142 -200)" d="M 5532.17,5437.9 L 5507.83,5437.9 L 5507.83,4680 L 5532.17,4680 L 5532.17,5437.9 Z " />
<path stroke="none" fill="#000000" transform="matrix(0.05 0 0 0.05 -142 -200)" d="M 5463.96,5437.9 L 5439.62,5437.9 L 5439.62,4680 L 5463.96,4680 L 5463.96,5437.9 Z " />
<path stroke="none" fill="#000000" transform="matrix(0.05 0 0 0.05 -142 -200)" d="M 4461.39,5863.25 L 4433.48,5904.52 L 3874.17,5526.14 L 3880,5500 L 3920.12,5497.07 L 4461.39,5863.25 Z " />
<path stroke="none" fill="#000000" transform="matrix(0.05 0 0 0.05 -142 -200)" d="M 6870.14,5521.7 L 6908.59,5525.08 L 6913.73,5551.94 L 6391.03,5920.13 L 6362.34,5879.4 L 6870.14,5521.7 Z " />
<path stroke="none" fill="#000000" transform="matrix(0.05 0 0 0.05 -142 -200)" d="M 6772.71,5503.79 L 6786.72,5523.69 L 6335.61,5841.46 L 6321.6,5821.56 L 6772.71,5503.79 Z " />
<path stroke="none" fill="#000000" transform="matrix(0.05 0 0 0.05 -142 -200)" d="M 3989.94,4584.98 L 3985.48,4558.99 L 4559.34,4195.26 L 4572.37,4215.81 L 3989.94,4584.98 Z " />
<path stroke="none" fill="#000000" transform="matrix(0.05 0 0 0.05 -142 -200)" d="M 4603.02,5114.31 L 4585.75,5131.46 L 4552.17,5097.64 L 4570.14,5081.21 L 4603.02,5114.31 L 4603.02,5114.31 Z " />
<path stroke="none" fill="#000000" transform="matrix(0.05 0 0 0.05 -142 -200)" d="M 4015.68,4557.36 L 4032.95,4540.21 L 4418.39,4928.39 L 4400.42,4944.82 L 4015.68,4557.36 L 4015.68,4557.36 Z " />
<path stroke="none" fill="#000000" transform="matrix(0.05 0 0 0.05 -142 -200)" d="M 4542.96,5173.95 L 4525.69,5191.1 L 4489.65,5154.81 L 4507.63,5138.37 L 4542.96,5173.95 L 4542.96,5173.95 Z " />
<path stroke="none" fill="#000000" transform="matrix(0.05 0 0 0.05 -142 -200)" d="M 3901.92,4562.92 L 3919.19,4545.77 L 4355.88,4985.55 L 4337.9,5001.98 L 3901.92,4562.92 L 3901.92,4562.92 Z " />
<path stroke="none" fill="#000000" transform="matrix(0.05 0 0 0.05 -142 -200)" d="M 6874.36,4628.44 L 6885.64,4651.56 L 6507.47,5028.79 L 6490.33,5011.52 L 6874.36,4628.44 L 6874.36,4628.44 Z " />
<path stroke="none" fill="#000000" transform="matrix(0.05 0 0 0.05 -142 -200)" d="M 6338.9,5196.95 L 6321.72,5179.72 L 6398.42,5103.21 L 6415.56,5120.48 L 6338.9,5196.95 L 6338.9,5196.95 Z " />
<path stroke="none" fill="#000000" transform="matrix(0.05 0 0 0.05 -142 -200)" d="M 6332.5,4285.23 L 6347.17,4265.81 L 6862.49,4655.07 L 6847.82,4674.49 L 6332.5,4285.23 Z " />
<path stroke="none" fill="#000000" transform="matrix(0.05 0 0 0.05 -142 -200)" d="M 6374.39,4229.78 L 6389.05,4210.36 L 6936.8,4624.11 L 6922.13,4643.53 L 6374.39,4229.78 Z " />
<path stroke="none" fill="#000000" transform="matrix(0.05 0 0 0.05 -142 -200)" d="M 3920.12,5497.07 L 3880,5500 L 3868.72,5476.56 L 4458.81,4937 L 4492.43,4973.77 L 3920.12,5497.07 Z " />
<path stroke="none" fill="#000000" transform="matrix(0.05 0 0 0.05 -142 -200)" d="M 4046.22,5497.43 L 4029.8,5479.47 L 4533.61,5018.8 L 4550.03,5036.76 L 4046.22,5497.43 Z " />
<path stroke="none" fill="#000000" transform="matrix(0.05 0 0 0.05 -142 -200)" d="M 6365.41,5013.17 L 6400.77,4978.07 L 6921.3,5502.51 L 6908.59,5525.08 L 6870.14,5521.7 L 6365.41,5013.17 Z " />
<text x="0" y="0" stroke="none" fill="#000000" transform="matrix(0.05 0 0 0.05 232.21 88.835)" font-style="normal" font-weight="normal" font-size="260px" font-family="Helvetica" >
CH</text>
<text x="0" y="0" stroke="none" fill="#000000" transform="matrix(0.05 0 0 0.05 250.986 91.8248)" font-style="normal" font-weight="normal" font-size="195px" font-family="Helvetica" >
3</text>
<path stroke="none" fill="#000000" transform="matrix(0.05 0 0 0.05 -142 -200)" d="M 7451.93,5630.17 L 7440.27,5678.61 L 6913.73,5551.94 L 6908.59,5525.08 L 6921.3,5502.51 L 7451.93,5630.17 Z " />
<text x="0" y="0" stroke="none" fill="#000000" transform="matrix(0.05 0 0 0.05 230.501 31.9451)" font-style="normal" font-weight="normal" font-size="220px" font-family="Helvetica" >
CH</text>
<text x="0" y="0" stroke="none" fill="#000000" transform="matrix(0.05 0 0 0.05 246.388 34.4749)" font-style="normal" font-weight="normal" font-size="165px" font-family="Helvetica" >
3</text>
<path stroke="none" fill="#000000" transform="matrix(0.05 0 0 0.05 -142 -200)" d="M 7409.12,4561.6 L 7412.14,4585.75 L 6885.64,4651.56 L 6874.36,4628.44 L 7409.12,4561.6 Z " />
<text x="0" y="0" stroke="none" fill="#000000" transform="matrix(0.05 0 0 0.05 7.86938 25.2891)" font-style="normal" font-weight="normal" font-size="220px" font-family="Helvetica" >
CH</text>
<text x="0" y="0" stroke="none" fill="#000000" transform="matrix(0.05 0 0 0.05 23.7571 27.8189)" font-style="normal" font-weight="normal" font-size="165px" font-family="Helvetica" >
3</text>
<path stroke="none" fill="#000000" transform="matrix(0.05 0 0 0.05 -142 -200)" d="M 3432.97,4457.62 L 3438.4,4433.89 L 3985.48,4558.99 L 3989.94,4584.98 L 3432.97,4457.62 Z " />
<text x="0" y="0" stroke="none" fill="#000000" transform="matrix(0.05 0 0 0.05 2.68065 84.1187)" font-style="normal" font-weight="normal" font-size="260px" font-family="Helvetica" >
CH</text>
<text x="0" y="0" stroke="none" fill="#000000" transform="matrix(0.05 0 0 0.05 21.457 87.1084)" font-style="normal" font-weight="normal" font-size="195px" font-family="Helvetica" >
3</text>
<path stroke="none" fill="#000000" transform="matrix(0.05 0 0 0.05 -142 -200)" d="M 3401.03,5600.65 L 3393.28,5551.43 L 3868.72,5476.56 L 3880,5500 L 3874.17,5526.14 L 3401.03,5600.65 Z " />
</svg>
